<?xml version="1.0" encoding="UTF-8"?>
<svg id="Ebene_2" data-name="Ebene 2" xmlns="http://www.w3.org/2000/svg" viewBox="0 0 310 30">
  <defs>
    <style>
      .cls-1 {
        fill: #fff;
        stroke-width: 0px;
      }
    </style>
  </defs>
  <g id="Ebene_1-2" data-name="Ebene 1">
    <path class="cls-1" d="M295,0H15C6.72,0,0,6.72,0,15s6.72,15,15,15h205v-10H15c-2.76,0-5-2.24-5-5s2.24-5,5-5h205q8,0,18,10c10,10,12,10,22,10h35c8.28,0,15-6.72,15-15s-6.72-15-15-15ZM295,20h-35q-8,0-17.92-10h52.92c2.76,0,5,2.24,5,5s-2.24,5-5,5Z"/>
  </g>
</svg>