<?xml version="1.0" encoding="UTF-8"?>
<svg id="Ebene_2" data-name="Ebene 2" xmlns="http://www.w3.org/2000/svg" viewBox="0 0 310 30">
  <defs>
    <style>
      .cls-1 {
        fill: none;
      }

      .cls-1, .cls-2 {
        stroke-width: 0px;
      }

      .cls-2 {
        fill: #fff;
      }
    </style>
  </defs>
  <g id="Ebene_1-2" data-name="Ebene 1">
    <g>
      <path class="cls-1" d="M15,10c-2.76,0-5,2.24-5,5s2.24,5,5,5h55v-10H15Z"/>
      <path class="cls-2" d="M295,0H120v10h175c2.76,0,5,2.24,5,5s-2.24,5-5,5H80v10h215c8.28,0,15-6.72,15-15s-6.72-15-15-15Z"/>
      <path class="cls-2" d="M15,20c-2.76,0-5-2.24-5-5s2.24-5,5-5h55V0H15C6.72,0,0,6.72,0,15s6.72,15,15,15h55v-10H15Z"/>
      <rect class="cls-2" x="70" y="10" width="10" height="10"/>
      <rect class="cls-2" x="70" y="20" width="10" height="10"/>
      <rect class="cls-2" x="70" width="10" height="10"/>
    </g>
  </g>
</svg>