<?xml version="1.0" encoding="UTF-8"?>
<svg id="Ebene_2" data-name="Ebene 2" xmlns="http://www.w3.org/2000/svg" viewBox="0 0 310 30">
  <defs>
    <style>
      .cls-1 {
        fill: #fff;
        stroke-width: 0px;
      }
    </style>
  </defs>
  <g id="Ebene_1-2" data-name="Ebene 1">
    <path class="cls-1" d="M295,0H120c-10,0-12,0-22,10s-10,10-18,10H15c-2.76,0-5-2.24-5-5s2.24-5,5-5h65V0H15C6.72,0,0,6.72,0,15s6.72,15,15,15h65c10,0,12.15,0,22.08-10s9.92-10,17.92-10h175c2.76,0,5,2.24,5,5s-2.24,5-5,5H120v10h175c8.28,0,15-6.72,15-15s-6.72-15-15-15Z"/>
  </g>
</svg>