<?xml version="1.0" encoding="UTF-8"?>
<svg id="Layer_2" data-name="Layer 2" xmlns="http://www.w3.org/2000/svg" viewBox="0 0 473.64 368.16">
  <defs>
    <style>
      .cls-1 {
        fill: #c2bbb3;
        stroke-width: 0px;
      }
    </style>
  </defs>
  <g id="Layer_1-2" data-name="Layer 1">
    <path class="cls-1" d="M0,170.41C0,112.96,22.34,70.19,67.04,42.11S172.77,0,250.19,0c71.05,0,126.11,10.74,165.2,32.23,39.09,21.48,57.99,50.29,56.72,86.43l-.38,11.96h-184.11v-10.99c.25-10.9-3.12-18.8-10.12-23.68-7.01-4.88-18.4-7.32-34.19-7.32s-27.31,3.34-35.33,10.01c-8.02,6.68-12.03,19.53-12.03,38.57v96.19c0,18.88,5.16,31.94,15.47,39.18,10.31,7.24,24.12,10.86,41.44,10.86,8.65,0,15.79-.69,21.39-2.08,5.6-1.38,11.08-3.7,16.42-6.96v-34.18h-42.78v-81.3l225.74-.24v153.08c-18.08,13.67-45.52,26.49-82.31,38.45-36.8,11.96-83.59,17.94-140.37,17.94-77.41,0-138.59-14.04-183.54-42.11C22.47,297.97,0,255.13,0,197.51v-27.1Z"/>
  </g>
</svg>