<?xml version="1.0" encoding="utf-8"?>
<!-- Generator: Adobe Illustrator 28.2.0, SVG Export Plug-In . SVG Version: 6.00 Build 0)  -->
<svg version="1.2" baseProfile="tiny" id="Layer_1" xmlns="http://www.w3.org/2000/svg" xmlns:xlink="http://www.w3.org/1999/xlink"
	 x="0px" y="0px" viewBox="0 0 652.3 572" overflow="visible" xml:space="none">
<g>
	<path d="M268.9,572C100.8,572,0,485.6,0,298.5v-2.3c0-63.6,13.6-117.4,40.9-161.4C95.5,45.5,196.2,0,329.6,0
		c184.9,0,300.8,65.2,321.2,217.4H445.5c-11.4-38.6-44.7-59.1-115.9-59.1c-91.7,0-140.9,40.2-140.9,135.6v0.8
		c0,85.6,41.7,129.6,137.1,129.6c80.3,0,123.5-22.7,137.9-65.2H304.6v-100h347.7v297.7H490.9l-11.4-150.8
		C463.7,522.7,396.2,572,268.9,572z"/>
</g>
</svg>
